<svg width="28" height="28" viewBox="0 0 28 28" fill="none" xmlns="http://www.w3.org/2000/svg">
<path d="M7.71871 24.5C7.18126 24.5 6.73287 24.3203 6.37354 23.961C6.01421 23.6017 5.83415 23.1533 5.83337 22.6158V5.38417C5.83337 4.8475 6.01343 4.3995 6.37354 4.04017C6.73365 3.68083 7.18204 3.50078 7.71871 3.5H20.2825C20.8192 3.5 21.2676 3.68006 21.6277 4.04017C21.9878 4.40028 22.1675 4.84867 22.1667 5.38533V22.6158C22.1667 23.1525 21.987 23.6009 21.6277 23.961C21.2684 24.3211 20.8196 24.5008 20.2814 24.5H7.71871ZM14 11.802L16.3334 10.4102L18.6667 11.802V4.66667H14V11.802Z" fill="#777777"/>
</svg>
